<svg xmlns="http://www.w3.org/2000/svg" xmlns:xlink="http://www.w3.org/1999/xlink" width="500" zoomAndPan="magnify" viewBox="0 0 375 374.999991" height="500" preserveAspectRatio="xMidYMid meet" version="1.2"><defs><clipPath id="a4fb0e4d79"><path d="M 60.234375 0 L 314.484375 0 L 314.484375 361 L 60.234375 361 Z M 60.234375 0 "/></clipPath></defs><g id="8446b891b5"><g style="fill:#000000;fill-opacity:1;"><g transform="translate(185.54091, 263.314699)"><path style="stroke:none" d="M 1.09375 -0.75 C 1.09375 -1.09375 1.171875 -1.332031 1.328125 -1.46875 C 1.492188 -1.613281 1.695312 -1.6875 1.9375 -1.6875 C 2.1875 -1.6875 2.394531 -1.613281 2.5625 -1.46875 C 2.726562 -1.332031 2.8125 -1.09375 2.8125 -0.75 C 2.8125 -0.414062 2.726562 -0.171875 2.5625 -0.015625 C 2.394531 0.128906 2.1875 0.203125 1.9375 0.203125 C 1.695312 0.203125 1.492188 0.128906 1.328125 -0.015625 C 1.171875 -0.171875 1.09375 -0.414062 1.09375 -0.75 Z M 1.09375 -0.75 "/></g></g><g clip-rule="nonzero" clip-path="url(#a4fb0e4d79)"><path style=" stroke:none;fill-rule:evenodd;fill:#ff3131;fill-opacity:1;" d="M 252.148438 171.707031 L 253.429688 170.867188 L 253.429688 99.664062 C 253.429688 63.324219 223.699219 33.59375 187.355469 33.59375 C 151.019531 33.59375 121.289062 63.324219 121.289062 99.664062 L 121.289062 111.980469 L 103.367188 111.980469 L 103.367188 119.679688 L 121.289062 119.679688 L 121.289062 133.988281 L 87.695312 133.988281 L 87.695312 99.664062 C 87.695312 44.785156 132.480469 0 187.355469 0 C 242.242188 0 287.023438 44.785156 287.023438 99.664062 L 287.023438 213.417969 C 291.566406 222.859375 294.800781 233.050781 296.503906 243.753906 L 314.40625 247.457031 C 314.40625 256.652344 314.40625 265.847656 314.40625 275.042969 L 296.503906 278.75 C 293.726562 296.214844 286.851562 312.316406 276.902344 326.042969 L 286.949219 341.332031 C 280.445312 347.835938 273.941406 354.335938 267.441406 360.839844 L 252.148438 350.792969 C 248.390625 353.515625 244.457031 356.007812 240.363281 358.25 L 230.179688 329.335938 C 252.769531 315.097656 267.78125 289.929688 267.78125 261.25 C 267.78125 216.832031 231.777344 180.824219 187.355469 180.824219 C 142.941406 180.824219 106.933594 216.832031 106.933594 261.25 C 106.933594 289.929688 121.949219 315.097656 144.539062 329.335938 L 134.355469 358.25 C 130.261719 356.007812 126.324219 353.515625 122.570312 350.792969 L 107.277344 360.839844 C 100.773438 354.335938 94.273438 347.835938 87.769531 341.332031 L 97.816406 326.046875 C 87.863281 312.320312 80.992188 296.214844 78.210938 278.75 L 60.3125 275.042969 C 60.3125 265.847656 60.3125 256.652344 60.3125 247.457031 L 78.210938 243.753906 C 80.992188 226.285156 87.867188 210.183594 97.816406 196.460938 L 87.769531 181.167969 C 94.273438 174.664062 100.773438 168.164062 107.277344 161.660156 L 122.570312 171.707031 C 159.84375 144.691406 214.875 144.691406 252.148438 171.707031 Z M 252.148438 171.707031 "/></g><path style=" stroke:none;fill-rule:evenodd;fill:#38b6ff;fill-opacity:1;" d="M 187.355469 222.804688 C 203.480469 222.804688 216.554688 238.246094 216.554688 251.996094 C 216.554688 265.75 210.039062 273.238281 200.539062 278.054688 L 220.453125 334.570312 L 230.480469 363.039062 C 205.648438 374.585938 169.070312 374.488281 144.234375 363.039062 L 154.261719 334.570312 L 174.179688 278.054688 C 164.675781 273.238281 158.164062 265.75 158.164062 251.996094 C 158.164062 238.246094 171.234375 222.804688 187.355469 222.804688 Z M 187.355469 222.804688 "/></g></svg>